<?xml version="1.0" encoding="UTF-8"?>
<svg xmlns="http://www.w3.org/2000/svg" xmlns:xlink="http://www.w3.org/1999/xlink" version="1.1" viewBox="0 0 648.5 557.1">
  <defs>
    <style>
      .cls-1 {
        fill: none;
      }

      .cls-2 {
        fill: #fff;
      }

      .cls-3 {
        clip-path: url(#clippath);
      }
    </style>
    <clipPath id="clippath">
      <path class="cls-1" d="M177.7,205.8s-7.6-116.1,120.2-141.8c0,0,80.4-20.3,138.2,49.3,0,0,27.6,25.8,33,75.6,0,0-53.7,73-141.6,11.8,0,0-34.2-27.7-71-27-10.4.2-30.4-2.4-78.8,32.1Z"/>
    </clipPath>
  </defs>
  <!-- Generator: Adobe Illustrator 28.6.0, SVG Export Plug-In . SVG Version: 1.2.0 Build 709)  -->
  <g>
    <g id="Layer_1">
      <path d="M530.4,205.5c-.6,113.1-92.8,212.1-214,207.4-121.9-4.7-200.2-106.7-199.2-207.5C118.4,82.6,218.2-1.2,327.4,0c115.4,1.3,203.9,96.4,203,205.5ZM326,373c95-1,164.4-80.1,166-166.2,1.6-90.5-73.5-165.8-161.9-167.7-94-2-174.1,69.2-173.4,166.7.6,88.7,74.6,167.2,169.3,167.2Z"/>
      <path d="M635.9,516.3c11.1,6.7,14.7,13.3,11.5,21.9-3.7,9.8-10.6,16.3-21.3,17-12.1.7-24.3.6-36.4,1-3.7.1-4.1-2.4-4.2-4.9-.3-7.3-.4-14.6-.4-21.9,0-14.6,0-29.3,0-43.9,0-7.3.5-8.1,7.9-8,10.8.1,21.7-.3,32.3,1,11.8,1.4,19.9,11.3,19.6,22.2-.2,6.6-3.6,11.5-9,15.7ZM603.8,539.2c5.9,0,11.7.3,17.5,0,4.9-.3,8.5-4,8.3-7.7-.3-3.4-4.7-7.1-9.2-7-5.7.1-11.5.7-17.3,1,.2,4.5.4,9,.7,13.7ZM603.2,509.2c5.7,0,11,0,16.2,0,4.4,0,7.3-2.4,7.8-6.8.4-4.3-2.4-7.2-6.3-7.6-5.8-.6-11.7-.1-17.7-.1v14.5Z"/>
      <path d="M381,524.5c0-9.5,0-17.8,0-26.1,0-4.2-.3-8.4,0-12.5.2-2.6,1.1-7.2,2.1-7.3,4.9-.5,10,0,15,.6.8.1,1.7,3.1,1.7,4.8-.1,22.2-.4,44.3-.6,66.5,0,3-1.3,4.3-4.4,4.9-5.9,1.1-10.3-.2-14.4-5.2-10.2-12.7-21-24.8-31.7-37.4,0,11,0,22,0,33.1,0,9.7-4.6,13-14,10.1-3.8-1.2-4.9-4.1-4.8-7.8.1-15,.2-30,.3-45,0-5.8-.3-11.7,0-17.5.2-2.5,1.4-6.6,2.8-6.9,3.9-.9,8.4-2.8,11.9,1.5,10.3,12.7,20.6,25.3,30.9,37.9,1.5,1.8,2.9,3.6,5.1,6.2Z"/>
      <path d="M80.3,515.7c-.3,22.1-19.4,41.7-40.5,41.4-22.3-.3-40.1-18.9-39.8-41.5.3-22.3,18.3-38.7,42.4-38.4,20.7.2,38.2,18,37.9,38.6ZM61.5,516.2c0-11.7-9.8-21.6-21.5-21.7-11.9-.1-21.9,9.6-21.9,21.2,0,12.5,9.7,22.5,21.9,22.5,12.1,0,21.6-9.7,21.6-22Z"/>
      <path d="M231,495.1h-37.8v13.9c7,0,14.1-.2,21.1,0,13.7.4,11.5-2.2,12,12.6,0,1-.2,2-.4,3.6h-32.9v13.1c7.9,0,15.7,0,23.4,0,1.8,0,3.7,0,5.5,0,9.9,0,10.2.4,9.8,10-.4,8-.4,7.9-8.3,7.9-13.7,0-27.3,0-41,0-5.7,0-7.5-1.6-7.6-7.4-.2-21.1-.4-42.3-.4-63.4,0-7.3.5-7.4,7.8-7.5,14-.1,28-.2,42-.5,4.7-.1,7.3,1.1,6.7,6.4-.3,3.4,0,7,0,11.3Z"/>
      <path d="M434.9,508.7h29.9c0-8.2,0-15.8,0-23.4,0-6.3.7-6.9,6.8-7.1,11.5-.4,11.4-.4,11.3,11.2,0,19.5,0,39,.1,58.5,0,7.4-1,8.6-8.2,8.3-9-.3-9.9-1.1-10-10.3,0-7.3,0-14.5,0-21.5h-29.8c0,8.5-.2,16.8,0,25.1.1,5-2.2,7-6.9,6.8-1.3,0-2.7,0-4,0-5.6-.1-7.3-1.8-7.3-7.6,0-18.5,0-37,.1-55.5,0-.8,0-1.7,0-2.5-.1-15-.1-12.1,13.2-12.6,3.9-.1,4.8,1.5,4.7,5.1-.3,7.2-.3,14.3-.3,21.5,0,1.3.2,2.6.3,3.9Z"/>
      <path d="M500.8,505.2c0-7.3.1-14.7,0-22,0-3.7,1.6-4.9,5-5.1,13.4-.8,13.4-.9,13.3,12.5,0,10.7-.3,21.3,0,32,.3,13,12.9,20.6,23.4,13.8,3.1-2,5.5-6.1,6.6-9.8,1.2-4.4.7-9.2.8-13.9,0-9.5,0-19,0-28.5,0-6.1.7-6.7,7-6.9,1.5,0,3,0,4.5,0,6.1.2,7.6,1.7,7.5,7.9-.2,14,.2,28-.7,41.9-1,15.4-15.6,28.7-31.1,29.4-22.2.9-35.8-11.9-36.2-34.3,0-5.7,0-11.3,0-17h0Z"/>
      <path d="M264.3,542.2c-1.1,2.5-2.4,5.5-3.6,8.6-1.6,4-4.3,6.2-8.8,5.6-1.5-.2-3,0-4.5-.1-6.2-.3-7.4-2-5-7.9,6.5-16,13.1-32,19.8-47.9,2.7-6.4,5.6-12.8,8.4-19.2,2.5-5.7,7.6-3.3,11.8-3.9,3.3-.4,4.5,1.8,5.7,4.5,8.8,21,17.8,41.9,26.7,62.9.3.8.7,1.5,1,2.3,2.9,7.5,1.8,9.3-6.2,9.2-.3,0-.7,0-1,0-6.4,1-10.4-1.2-11.8-7.9-1-4.7-3.4-6.9-9-6.3-7.4.8-14.9.2-23.3.2ZM278.2,503.5c-3.1,7.7-5.9,14.6-9,22.2h18.4c-3.1-7.2-6.1-14.3-9.4-22.2Z"/>
      <path d="M149,504.6c-11.9-13.5-25.6-10.2-32.8-3.5-8,7.5-8.6,21.7-.8,29.9,4.7,4.9,10.4,7.5,17.5,6.8,6.8-.7,11.7-4.2,15.4-9.9,5.2,3.7,9.9,7,14.6,10.3-19,26.8-44.4,20.9-58,8.7-16.7-15-17.7-43.5-1.7-58.1,15.6-14.3,40.2-18.6,59.6,5.2-4.5,3.5-9,6.9-13.8,10.6Z"/>
      <path class="cls-2" d="M450.4,277.4c-4.8,1.7-8.3,2.9-11.8,4.3-22.6,8.7-45.6,11-69.4,5-21-5.3-39.5-15.3-57.4-27-22.5-14.7-46.4-21.2-73.5-13.7-17.6,4.9-31.5,14.2-43.3,27.4,61.4,108.8,201.6,99.4,255.5,3.9Z"/>
      <path class="cls-2" d="M177.7,205.8c7.5-4.9,14-9.6,20.8-13.6,38.6-22.8,77.3-26.5,115.8.2,13.7,9.5,28.3,17.1,43.5,24.2,38.1,17.6,83.1,5.8,109.8-24.1.8-.9,1.6-2.4,1.4-3.5-.9-6.8-2-13.6-3.1-20.9-5.6,7.3-9.7,14.4-15.4,19.7-23.9,22.5-52.5,27-83.6,19.8-16.7-3.9-31.4-11.9-44.5-22.7-12.9-10.6-23.3-23.1-26.2-40.5-2.9-17.1,4.4-31.6,20.3-38.6,9.4-4.2,18.5-3.1,27.5,1.1,7.4,3.5,8.8,10.3,9.2,19,2.9-23.4-8.8-39.4-27.9-48.9-4.3-2.2-8.4-5.1-12.2-8-4.5-3.4-9-5.7-15.1-4.8-25.6,3.7-47.9,15.4-68.1,30.5-20.1,15-33.7,35.6-43.1,59-6.7,16.7-8.6,34-9,52.3Z"/>
      <path class="cls-2" d="M470.5,217.1c-1.1.1-1.7,0-2.1.3-3.8,2.7-7.5,5.5-11.3,8.2-19.3,13.8-41.2,20.3-64.4,18.9-26.5-1.6-50.6-11.6-72.5-27-8.8-6.2-18.1-11.8-27.8-16.6-12.2-6-25.3-9-39.1-8.1-28.4,1.9-51.1,15.7-71.2,34.6-.9.8-2,2.4-1.8,3.3,2.1,8.3,4.5,16.5,7.1,25.6,2.3-2.1,3.5-3.2,4.8-4.3,28.1-24.2,59.3-35,96.1-22.7,16.6,5.6,30.9,15.4,45.7,24.4,33.6,20.4,68.7,23.8,105,8.2,15-6.4,27.6-15.6,29.6-33.8.4-3.6,1.2-7.1,1.9-11.2Z"/>
      <path class="cls-2" d="M339.9,75.1c9.9,4.9,15,13.7,20.4,22.2.5.8,1.3,1.5,1.9,2.3,2.8,3.8,5.5,7.8,8.5,11.6,7.5,9.4,12.2,21.2,22.7,28.1,8.4,5.6,16.9,11,25.7,16,5.8,3.3,12.9,0,14.9-6.3.8-2.5,1-5.2,1.3-7.8.6-6.2,0-12.9,2-18.6,1.4-4,1.1-6.3-1.2-9.2-19.4-24.4-44.8-39.2-74.8-46.5-8.1-2-16.6,1.3-21.4,8.2Z"/>
      <path class="cls-2" d="M352.7,130.9c-2.8-1-4.9-1.4-6.6-2.5-2.1-1.3-3.7-3.4-5.7-4.9-4.4-3.2-9.2-4.6-14.5-2.1-8.1,3.8-11.9,11.5-9.2,19.1,3,8.6,11,12.6,20,10.2,10.8-2.8,13.6-11.7,16.1-19.9Z"/>
      <path class="cls-2" d="M603.8,539.2c-.2-4.8-.4-9.2-.7-13.7,5.8-.4,11.5-.9,17.3-1,4.4,0,8.9,3.6,9.2,7,.3,3.7-3.3,7.4-8.3,7.7-5.8.3-11.6,0-17.5,0Z"/>
      <path class="cls-2" d="M603.2,509.2v-14.5c6,0,11.9-.4,17.7.1,3.9.4,6.7,3.3,6.3,7.6-.4,4.4-3.4,6.7-7.8,6.8-5.3.1-10.5,0-16.2,0Z"/>
      <path class="cls-2" d="M61.5,516.2c0,12.4-9.5,22.1-21.6,22-12.2,0-21.9-10-21.9-22.5,0-11.7,10-21.4,21.9-21.2,11.8.1,21.5,10,21.5,21.7Z"/>
      <path class="cls-2" d="M278.2,503.5c3.4,7.9,6.4,15,9.4,22.2h-18.4c3.1-7.5,5.8-14.4,9-22.2Z"/>
      <path d="M450.4,277.4c-53.9,95.5-194.1,104.8-255.5-3.9,11.8-13.2,25.7-22.5,43.3-27.4,27.1-7.5,51-1,73.5,13.7,17.9,11.7,36.4,21.7,57.4,27,23.8,6,46.8,3.7,69.4-5,3.5-1.4,7.1-2.6,11.8-4.3Z"/>
      <path d="M177.7,205.8c.4-18.3,2.3-35.6,9-52.3,9.4-23.4,22.9-44,43.1-59,20.2-15,42.5-26.7,68.1-30.5,6.1-.9,10.6,1.4,15.1,4.8,3.9,2.9,7.9,5.9,12.2,8,19.1,9.5,30.9,25.5,27.9,48.9-.4-8.7-1.8-15.6-9.2-19-9-4.2-18.1-5.2-27.5-1.1-15.9,7-23.2,21.5-20.3,38.6,3,17.4,13.3,29.9,26.2,40.5,13.1,10.8,27.9,18.8,44.5,22.7,31.1,7.2,59.7,2.7,83.6-19.8,5.7-5.3,9.7-12.4,15.4-19.7,1.1,7.3,2.2,14.1,3.1,20.9.1,1.1-.6,2.6-1.4,3.5-26.6,29.8-71.6,41.6-109.8,24.1-15.2-7-29.8-14.7-43.5-24.2-38.5-26.6-77.2-23-115.8-.2-6.9,4-13.3,8.7-20.8,13.6Z"/>
      <path d="M470.5,217.1c-.7,4.1-1.5,7.6-1.9,11.2-2,18.2-14.6,27.4-29.6,33.8-36.3,15.6-71.4,12.2-105-8.2-14.8-9-29.1-18.8-45.7-24.4-36.7-12.3-68-1.5-96.1,22.7-1.2,1.1-2.4,2.2-4.8,4.3-2.6-9.1-5-17.3-7.1-25.6-.2-.9.9-2.5,1.8-3.3,20.1-18.9,42.8-32.7,71.2-34.6,13.8-.9,26.9,2.1,39.1,8.1,9.7,4.7,19,10.4,27.8,16.6,21.9,15.5,46,25.5,72.5,27,23.2,1.4,45.1-5.2,64.4-18.9,3.8-2.7,7.5-5.5,11.3-8.2.3-.2.9-.2,2.1-.3Z"/>
      <path d="M339.9,75.1c4.8-7,13.3-10.2,21.4-8.2,30,7.3,55.4,22.1,74.8,46.5,2.3,2.9,2.6,5.1,1.2,9.2-2,5.7-1.4,12.4-2,18.6-.3,2.6-.5,5.3-1.3,7.8-2.1,6.3-9.2,9.6-14.9,6.3-8.8-5-17.3-10.4-25.7-16-10.4-7-15.1-18.7-22.7-28.1-3-3.7-5.7-7.7-8.5-11.6-.6-.8-1.4-1.4-1.9-2.3-5.5-8.5-10.6-17.4-20.4-22.2Z"/>
      <path d="M352.7,130.9c-2.5,8.2-5.2,17.1-16.1,19.9-9,2.4-17-1.6-20-10.2-2.7-7.6,1.1-15.4,9.2-19.1,5.3-2.5,10.1-1.1,14.5,2.1,2,1.5,3.6,3.5,5.7,4.9,1.7,1.1,3.9,1.5,6.6,2.5Z"/>
      <g class="cls-3">
        <image width="1024" height="1024" transform="translate(-189.1 -195.8)" xlink:href="../../../../../../Downloads/DALL·E 2024-12-09 18.07.57 - A minimalistic and simple black-and-white logo for an e-commerce website named &apos;OceanHub&apos;. The design features a clean and modern wave icon representi.webp"/>
      </g>
    </g>
  </g>
</svg>