<?xml version="1.0" encoding="UTF-8"?>
<svg xmlns="http://www.w3.org/2000/svg" xmlns:xlink="http://www.w3.org/1999/xlink" version="1.1" viewBox="0 0 1383.3 413.1">
  <defs>
    <style>
      .cls-1 {
        fill: none;
      }

      .cls-2 {
        fill: #fff;
      }

      .cls-3 {
        clip-path: url(#clippath);
      }
    </style>
    <clipPath id="clippath">
      <path class="cls-1" d="M60.6,205.8s-7.6-116.1,120.2-141.8c0,0,80.4-20.3,138.2,49.3,0,0,27.6,25.8,33,75.6,0,0-53.7,73-141.6,11.8,0,0-34.2-27.7-71-27-10.4.2-30.4-2.4-78.8,32.1Z"/>
    </clipPath>
  </defs>
  <!-- Generator: Adobe Illustrator 28.6.0, SVG Export Plug-In . SVG Version: 1.2.0 Build 709)  -->
  <g>
    <g id="Layer_1">
      <g>
        <path d="M413.2,205.5c-.6,113.1-92.8,212.1-214,207.4C77.3,408.2-1,306.3,0,205.5,1.2,82.6,101.1-1.2,210.2,0c115.4,1.3,203.9,96.4,203,205.5ZM208.8,373c95-1,164.4-80.1,166-166.2,1.6-90.5-73.5-165.8-161.9-167.7-94-2-174.1,69.2-173.4,166.7.6,88.7,74.6,167.2,169.3,167.2Z"/>
        <path d="M1341.9,105c0-21.1,0-39.4,0-57.7,0-9.2-.6-18.5,0-27.6.5-5.7,2.4-15.8,4.6-16.1,10.9-1.1,22.2-.2,33.1,1.3,1.7.2,3.7,6.9,3.7,10.6-.3,49-.9,98-1.3,146.9,0,6.7-2.9,9.6-9.6,10.8-13.1,2.5-22.8-.4-31.8-11.5-22.6-28-46.4-54.9-70.1-82.7,0,24.3,0,48.7,0,73.1,0,21.5-10.2,28.8-30.9,22.4-8.4-2.6-10.8-9-10.7-17.2.3-33.2.5-66.3.6-99.5,0-12.9-.7-25.8.2-38.6.4-5.5,3-14.5,6.2-15.3,8.5-2.1,18.6-6.2,26.4,3.4,22.7,28,45.6,55.9,68.4,83.8,3.2,4,6.5,7.9,11.2,13.8Z"/>
        <path d="M676.9,85.4c-.6,49-42.8,92.1-89.5,91.5-49.3-.6-88.7-41.7-88-91.8C500.1,35.7,539.9-.4,593.1.2c45.8.5,84.4,39.7,83.8,85.3ZM635.3,86.6c0-25.9-21.6-47.7-47.6-48-26.3-.3-48.4,21.1-48.5,46.9,0,27.7,21.3,49.7,48.4,49.8,26.7,0,47.7-21.4,47.7-48.7Z"/>
        <path d="M1010.2,39.9h-83.6v30.8c15.4,0,31.1-.4,46.8,0,30.3.9,25.3-4.9,26.6,27.8,0,2.2-.4,4.3-.8,8h-72.7v29c17.5,0,34.7,0,51.8,0,4.1,0,8.1,0,12.2,0,21.9.1,22.6.9,21.7,22.1-.8,17.6-.8,17.5-18.2,17.5-30.2,0-60.4.2-90.6.2-12.5,0-16.6-3.6-16.8-16.3-.5-46.8-1-93.5-1-140.3,0-16,1.2-16.4,17.2-16.6,30.9-.3,61.9-.4,92.8-1.2,10.5-.3,16.1,2.4,14.9,14.1-.8,7.6-.1,15.4-.1,24.9Z"/>
        <g>
          <path d="M983.7,315.5c24.6,14.8,32.5,29.4,25.4,48.4-8.1,21.7-23.4,36-47.1,37.5-26.8,1.6-53.7,1.3-80.5,2.2-8.2.3-9.1-5.3-9.3-10.8-.6-16.2-.8-32.4-.9-48.5,0-32.4.1-64.7,0-97.1,0-16.2,1.2-17.9,17.4-17.7,23.9.3,47.9-.6,71.5,2.2,26,3,44,25.1,43.3,49.1-.4,14.6-8,25.5-19.9,34.7ZM912.7,366.1c13.1,0,25.9.6,38.7-.2,10.9-.6,18.9-8.8,18.3-17-.6-7.6-10.5-15.6-20.3-15.4-12.7.3-25.4,1.4-38.2,2.2.5,10,1,19.8,1.5,30.3ZM911.3,299.9c12.6,0,24.2.2,35.9,0,9.7-.2,16.2-5.2,17.1-15,.9-9.6-5.3-15.9-13.9-16.8-12.8-1.3-25.9-.3-39.1-.3v32.2Z"/>
          <path d="M539.3,298.7h66.2c0-18.1,0-34.9,0-51.7,0-13.8,1.5-15.2,15-15.7,25.4-1,25.1-1,25,24.8-.1,43.1,0,86.2.3,129.3,0,16.4-2.2,18.9-18.2,18.4-19.9-.6-21.8-2.5-22.1-22.7-.2-16,0-32.1,0-47.6h-65.9c0,18.9-.4,37.2.1,55.5.3,11.1-4.8,15.4-15.3,15.1-2.9,0-5.9,0-8.8,0-12.5-.3-16.2-4-16.2-16.9,0-40.9.2-81.8.3-122.7,0-1.8.2-3.7.1-5.5-.2-33.2-.3-26.8,29.3-27.8,8.6-.3,10.7,3.4,10.4,11.2-.6,15.8-.6,31.7-.7,47.5,0,2.9.4,5.8.6,8.7Z"/>
          <path d="M684.9,291c0-16.2.3-32.4-.1-48.6-.2-8.2,3.5-10.9,11.1-11.4,29.7-1.8,29.6-1.9,29.3,27.7-.2,23.6-.6,47.1-.1,70.7.6,28.7,28.5,45.6,51.7,30.5,6.8-4.4,12.2-13.6,14.5-21.6,2.7-9.6,1.6-20.4,1.7-30.7.2-21-.2-42,.1-63,.2-13.6,1.6-14.7,15.4-15.3,3.3-.1,6.6-.2,9.9,0,13.4.4,16.8,3.8,16.6,17.5-.4,30.9.3,61.9-1.6,92.7-2.2,34.1-34.6,63.5-68.7,64.9-49.1,2.1-79.2-26.4-80.1-75.8-.2-12.5,0-25,0-37.6h.2Z"/>
        </g>
        <path d="M1083.7,144.1c-2.3,5.5-5.2,12.2-8,18.9-3.6,8.7-9.4,13.7-19.5,12.4-3.3-.4-6.6-.1-9.9-.2-13.6-.6-16.4-4.4-11.1-17.4,14.4-35.4,29-70.7,43.7-106,5.9-14.2,12.3-28.3,18.5-42.5,5.5-12.6,16.8-7.4,26-8.6,7.4-1,10,4,12.5,9.9,19.6,46.4,39.3,92.7,59,139,.7,1.7,1.5,3.3,2.2,5.1,6.5,16.7,3.9,20.5-13.7,20.4-.7,0-1.5-.1-2.2,0-14.1,2.3-23-2.7-26.2-17.5-2.2-10.3-7.6-15.3-19.9-13.9-16.3,1.8-33,.4-51.5.4ZM1114.5,58.6c-6.9,17.1-13.1,32.4-19.8,49h40.7c-6.8-16-13.4-31.5-20.8-49Z"/>
        <path d="M828.9,61c-26.3-29.8-56.6-22.7-72.4-7.7-17.7,16.7-18.9,48-1.8,66,10.3,10.9,23.1,16.5,38.7,15,15-1.5,25.9-9.2,34-22,11.5,8.1,21.9,15.5,32.3,22.9-42,59.3-98.3,46.2-128.3,19.2-37-33.2-39.2-96.2-3.8-128.6,34.6-31.6,88.9-41.1,131.9,11.6-9.9,7.7-19.9,15.4-30.5,23.5Z"/>
        <path class="cls-2" d="M333.3,277.4c-4.8,1.7-8.3,2.9-11.8,4.3-22.6,8.7-45.6,11-69.4,5-21-5.3-39.5-15.3-57.4-27-22.5-14.7-46.4-21.2-73.5-13.7-17.6,4.9-31.5,14.2-43.3,27.4,61.4,108.8,201.6,99.4,255.5,3.9Z"/>
        <path class="cls-2" d="M60.6,205.8c7.5-4.9,14-9.6,20.8-13.6,38.6-22.8,77.3-26.5,115.8.2,13.7,9.5,28.3,17.1,43.5,24.2,38.1,17.6,83.1,5.8,109.8-24.1.8-.9,1.6-2.4,1.4-3.5-.9-6.8-2-13.6-3.1-20.9-5.6,7.3-9.7,14.4-15.4,19.7-23.9,22.5-52.5,27-83.6,19.8-16.7-3.9-31.4-11.9-44.5-22.7-12.9-10.6-23.3-23.1-26.2-40.5-2.9-17.1,4.4-31.6,20.3-38.6,9.4-4.2,18.5-3.1,27.5,1.1,7.4,3.5,8.8,10.3,9.2,19,2.9-23.4-8.8-39.4-27.9-48.9-4.3-2.2-8.4-5.1-12.2-8-4.5-3.4-9-5.7-15.1-4.8-25.6,3.7-47.9,15.4-68.1,30.5-20.1,15-33.7,35.6-43.1,59-6.7,16.7-8.6,34-9,52.3Z"/>
        <path class="cls-2" d="M353.3,217.1c-1.1.1-1.7,0-2.1.3-3.8,2.7-7.5,5.5-11.3,8.2-19.3,13.8-41.2,20.3-64.4,18.9-26.5-1.6-50.6-11.6-72.5-27-8.8-6.2-18.1-11.8-27.8-16.6-12.2-6-25.3-9-39.1-8.1-28.4,1.9-51.1,15.7-71.2,34.6-.9.8-2,2.4-1.8,3.3,2.1,8.3,4.5,16.5,7.1,25.6,2.3-2.1,3.5-3.2,4.8-4.3,28.1-24.2,59.3-35,96.1-22.7,16.6,5.6,30.9,15.4,45.7,24.4,33.6,20.4,68.7,23.8,105,8.2,15-6.4,27.6-15.6,29.6-33.8.4-3.6,1.2-7.1,1.9-11.2Z"/>
        <path class="cls-2" d="M222.7,75.1c9.9,4.9,15,13.7,20.4,22.2.5.8,1.3,1.5,1.9,2.3,2.8,3.8,5.5,7.8,8.5,11.6,7.5,9.4,12.2,21.2,22.7,28.1,8.4,5.6,16.9,11,25.7,16,5.8,3.3,12.9,0,14.9-6.3.8-2.5,1-5.2,1.3-7.8.6-6.2,0-12.9,2-18.6,1.4-4,1.1-6.3-1.2-9.2-19.4-24.4-44.8-39.2-74.8-46.5-8.1-2-16.6,1.3-21.4,8.2Z"/>
        <path class="cls-2" d="M235.6,130.9c-2.8-1-4.9-1.4-6.6-2.5-2.1-1.3-3.7-3.4-5.7-4.9-4.4-3.2-9.2-4.6-14.5-2.1-8.1,3.8-11.9,11.5-9.2,19.1,3,8.6,11,12.6,20,10.2,10.8-2.8,13.6-11.7,16.1-19.9Z"/>
        <path d="M333.3,277.4c-53.9,95.5-194.1,104.8-255.5-3.9,11.8-13.2,25.7-22.5,43.3-27.4,27.1-7.5,51-1,73.5,13.7,17.9,11.7,36.4,21.7,57.4,27,23.8,6,46.8,3.7,69.4-5,3.5-1.4,7.1-2.6,11.8-4.3Z"/>
        <path d="M60.6,205.8c.4-18.3,2.3-35.6,9-52.3,9.4-23.4,22.9-44,43.1-59,20.2-15,42.5-26.7,68.1-30.5,6.1-.9,10.6,1.4,15.1,4.8,3.9,2.9,7.9,5.9,12.2,8,19.1,9.5,30.9,25.5,27.9,48.9-.4-8.7-1.8-15.6-9.2-19-9-4.2-18.1-5.2-27.5-1.1-15.9,7-23.2,21.5-20.3,38.6,3,17.4,13.3,29.9,26.2,40.5,13.1,10.8,27.9,18.8,44.5,22.7,31.1,7.2,59.7,2.7,83.6-19.8,5.7-5.3,9.7-12.4,15.4-19.7,1.1,7.3,2.2,14.1,3.1,20.9.1,1.1-.6,2.6-1.4,3.5-26.6,29.8-71.6,41.6-109.8,24.1-15.2-7-29.8-14.7-43.5-24.2-38.5-26.6-77.2-23-115.8-.2-6.9,4-13.3,8.7-20.8,13.6Z"/>
        <path d="M353.3,217.1c-.7,4.1-1.5,7.6-1.9,11.2-2,18.2-14.6,27.4-29.6,33.8-36.3,15.6-71.4,12.2-105-8.2-14.8-9-29.1-18.8-45.7-24.4-36.7-12.3-68-1.5-96.1,22.7-1.2,1.1-2.4,2.2-4.8,4.3-2.6-9.1-5-17.3-7.1-25.6-.2-.9.9-2.5,1.8-3.3,20.1-18.9,42.8-32.7,71.2-34.6,13.8-.9,26.9,2.1,39.1,8.1,9.7,4.7,19,10.4,27.8,16.6,21.9,15.5,46,25.5,72.5,27,23.2,1.4,45.1-5.2,64.4-18.9,3.8-2.7,7.5-5.5,11.3-8.2.3-.2.9-.2,2.1-.3Z"/>
        <path d="M222.7,75.1c4.8-7,13.3-10.2,21.4-8.2,30,7.3,55.4,22.1,74.8,46.5,2.3,2.9,2.6,5.1,1.2,9.2-2,5.7-1.4,12.4-2,18.6-.3,2.6-.5,5.3-1.3,7.8-2.1,6.3-9.2,9.6-14.9,6.3-8.8-5-17.3-10.4-25.7-16-10.4-7-15.1-18.7-22.7-28.1-3-3.7-5.7-7.7-8.5-11.6-.6-.8-1.4-1.4-1.9-2.3-5.5-8.5-10.6-17.4-20.4-22.2Z"/>
        <path d="M235.6,130.9c-2.5,8.2-5.2,17.1-16.1,19.9-9,2.4-17-1.6-20-10.2-2.7-7.6,1.1-15.4,9.2-19.1,5.3-2.5,10.1-1.1,14.5,2.1,2,1.5,3.6,3.5,5.7,4.9,1.7,1.1,3.9,1.5,6.6,2.5Z"/>
        <g class="cls-3">
          <image width="1024" height="1024" transform="translate(-306.3 -195.8)" xlink:href="../../../../../../Downloads/DALL·E 2024-12-09 18.07.57 - A minimalistic and simple black-and-white logo for an e-commerce website named &apos;OceanHub&apos;. The design features a clean and modern wave icon representi.webp"/>
        </g>
      </g>
    </g>
  </g>
</svg>